<svg xmlns="http://www.w3.org/2000/svg" viewBox="0 0 290.22 196.22"><defs><style>.cls-1,.cls-7{fill:#4f8571;}.cls-1,.cls-2{fill-rule:evenodd;}.cls-2,.cls-3{fill:#44698d;}.cls-3,.cls-7{font-size:38.51px;}.cls-3{font-family:Montserrat-Black, Montserrat;font-weight:800;}.cls-4{letter-spacing:-0.05em;}.cls-5{letter-spacing:-0.06em;}.cls-6{letter-spacing:-0.05em;}.cls-7{font-family:Montserrat-Regular, Montserrat;letter-spacing:-0.05em;}.cls-8{letter-spacing:-0.06em;}.cls-9{letter-spacing:0em;}</style></defs><title>logo</title><g id="Layer_2" data-name="Layer 2"><g id="Layer_1-2" data-name="Layer 1"><path class="cls-1" d="M251.82,103.86c14.16,14,27.5,24.93,23.45,28.05-13.86,10.72-62.13,20.87-90.92-3.8-31.07-26.63-33.95-71.59-6.53-101.79,26.73-29.45,73-34.94,98-12.65.5.45,1.77,1.9-.74,4.09-.37.32.46-1.06-.09,0-.35.69-56.15,53.08-55.47,53.81,8,8.55-.55-.46.27.23.57.47,30.09,30.11,32,32"/><path class="cls-2" d="M55.73,133.36c-8.34,0-16.69.22-25,0-13.23-.42-20.82-7.63-21-20.84q-.45-44.83,0-89.66c.12-11.35,6.8-19.53,17.33-19.9,19.07-.68,38.35-1.54,57.26.46,26.2,2.76,45.35,22,48.81,48.2,2.49,18.9,3.19,38.3-8.42,55.36s-27.57,25.92-48.16,26.39c-7,.16-13.9,0-20.85,0"/><text class="cls-3" transform="translate(0 185.82)"><tspan class="cls-4">DOL</tspan><tspan class="cls-5" x="82.56" y="0">P</tspan><tspan class="cls-6" x="108.89" y="0">HI</tspan><tspan x="149.56" y="0">N</tspan></text><text class="cls-7" transform="translate(186.52 185.82)">C<tspan class="cls-8" x="25.76" y="0">L</tspan><tspan class="cls-4" x="46.05" y="0">U</tspan><tspan class="cls-9" x="74.66" y="0">B</tspan></text></g></g></svg>